inDegrees=yes
name=IK-live
DataType=double
version=3
OpenSimVersion=4.1
endheader
time	pelvis_tilt	pelvis_list	pelvis_rotation	pelvis_tx	pelvis_ty	pelvis_tz	hip_flexion_r	hip_adduction_r	hip_rotation_r	knee_angle_r	ankle_angle_r	subtalar_angle_r	mtp_angle_r	hip_flexion_l	hip_adduction_l	hip_rotation_l	knee_angle_l	ankle_angle_l	subtalar_angle_l	mtp_angle_l	lumbar_extension	lumbar_bending	lumbar_rotation	neck_flex	neck_latbend	neck_rot	arm_flex_r	arm_add_r	arm_rot_r	elbow_flex_r	pro_sup_r	wrist_flex_r	wrist_dev_r	arm_flex_l	arm_add_l	arm_rot_l	elbow_flex_l	pro_sup_l	wrist_flex_l	wrist_dev_l
0	-15.01979261624447	2.117901851541014	-182.1287753733623	0.2341366603171506	0.04326292228651554	-1.326684523481465	-22.571546650835	-1.59239296097972	-3.241942312726107	5.899560354604904	2.451982624139334	1.987972377786656	0	-24.7482110429332	-3.394665515953164	-11.57955382266605	9.793848132074926	-0.4439473045988533	4.250290820099795	0	-21.37711699760957	1.659277491615732	3.206407148933037	0	0	0	87.76612038019105	-14.99480813791994	-0.6383308383334394	74.46824634379794	44.9691413407113	0	4.920115315067463	87.79664836400116	-15.05207497936757	-0.8554339790679608	74.44219027824722	45.01613071830333	0	4.920115315067463
5.3162627	-15.01179953018746	2.106594257287282	-182.1550421140649	0.2341366603171506	0.04326292228651554	-1.326684523481465	-22.5949237289715	-1.580384009583427	-3.280673768234148	5.899560354604904	2.451982624139334	1.987972377786656	0	-24.74788339441743	-3.362667160613432	-11.63266706169996	9.793848132074926	-0.4439473045988533	4.250290820099795	0	-21.37711699760957	1.659277491615732	3.206407148933037	0	0	0	87.77565857964055	-14.99487242308901	-0.6276395965957604	74.48095237269756	44.97109534283577	0	4.930742958604922	87.80605617681827	-15.05143019009193	-0.8411059923560151	74.45551876192057	45.0151093294981	0	4.930742958604922
5.4681337	-15.01257383181362	2.1059382108498	-182.1582753966774	0.2341366603171506	0.04326292228651554	-1.326684523481465	-22.59384889493045	-1.579603520355198	-3.289503936480929	5.899560354604904	2.451982624139334	1.987972377786656	0	-24.74930501369352	-3.361754346065321	-11.62458617512936	9.793848132074926	-0.4439473045988533	4.250290820099795	0	-21.37711699760957	1.659277491615732	3.206407148933037	0	0	0	87.78722805915329	-14.99493863766809	-0.6174465078583327	74.49176914763005	44.97216486337012	0	4.93452943764625	87.81746751547962	-15.05076604866855	-0.8274460469197932	74.46686538345662	45.01455027340902	0	4.93452943764625
5.6330835	-15.01306471855214	2.107025925428498	-182.1527453507248	0.2341366603171506	0.04326292228651554	-1.326684523481465	-22.59082569661403	-1.574399053655864	-3.273222874236668	5.899560354604904	2.451982624139334	1.987972377786656	0	-24.74782369598036	-3.365328591270086	-11.61604310167729	9.793848132074926	-0.4439473045988533	4.250290820099795	0	-21.37711699760957	1.659277491615732	3.206407148933037	0	0	0	87.81551927872448	-14.99510240811681	-0.5922049029199903	74.51846220922813	44.97459035755146	0	4.94135753638656	87.84537202394827	-15.04912340829856	-0.7936192124082146	74.49486598184885	45.0132824274407	0	4.94135753638656
5.7831058	-15.0170198600793	2.104031182090065	-182.1526058414214	0.2341366603171506	0.04326292228651554	-1.326684523481465	-22.59198832964758	-1.574793621205475	-3.268460572623676	5.899560354604904	2.451982624139334	1.987972377786656	0	-24.75210228836319	-3.362874303661342	-11.61196448172235	9.793848132074926	-0.4439473045988533	4.250290820099795	0	-21.37711699760957	1.659277491615732	3.206407148933037	0	0	0	87.83498505095001	-14.99520488551495	-0.5766402456646396	74.53501503803714	44.97653865984588	0	4.95077115511562	87.86457173683215	-15.04809554576526	-0.7727606064307287	74.51222966413295	45.01226401791854	0	4.95077115511562
5.9341994	-15.01991751526978	2.106602482553083	-182.1521505200513	0.2341366603171506	0.04326292228651554	-1.326684523481465	-22.58969076088164	-1.571234862552841	-3.267319709762953	5.899560354604904	2.451982624139334	1.987972377786656	0	-24.74950862560383	-3.361079847355086	-11.62494400092045	9.793848132074926	-0.4439473045988533	4.250290820099795	0	-21.37711699760957	1.659277491615732	3.206407148933037	0	0	0	87.8615909388306	-14.99534920744431	-0.5546154290652063	74.55840590770667	44.97907112903412	0	4.960739402915019	87.89081396858344	-15.04664797679278	-0.7432447162915967	74.53676632748075	45.01094025461199	0	4.960739402915019
6.1011067	-15.02243837715187	2.106967469908482	-182.1511922111308	0.2341366603171506	0.04326292228651554	-1.326684523481465	-22.59695080906918	-1.568103494088105	-3.262127926455979	5.899560354604904	2.451982624139334	1.987972377786656	0	-24.75193913663941	-3.364493345442535	-11.61941971633806	9.793848132074926	-0.4439473045988533	4.250290820099795	0	-21.37711699760957	1.659277491615732	3.206407148933037	0	0	0	87.87934891616827	-14.99545126448068	-0.5387868130215195	74.57547160739452	44.98092648785745	0	4.967686720234055	87.90832921478786	-15.04562433050802	-0.7220323001394959	74.5546680016112	45.00997042804905	0	4.967686720234055
6.2511143	-15.02091488907804	2.106475859699657	-182.1500638755022	0.2341366603171506	0.04326292228651554	-1.326684523481465	-22.5970889262446	-1.564187855042314	-3.264650707009334	5.899560354604904	2.451982624139334	1.987972377786656	0	-24.74717188201084	-3.366354312036316	-11.61732397343843	9.793848132074926	-0.4439473045988533	4.250290820099795	0	-21.37711699760957	1.659277491615732	3.206407148933037	0	0	0	87.89971487732642	-14.99557008423935	-0.5199799494538274	74.59639538452517	44.98339519565776	0	4.976522980407674	87.92841680111746	-15.04443255174413	-0.6968284572448045	74.57661676692074	45.00867999394433	0	4.976522980407674
6.4174331	-15.01887127281647	2.111586142320932	-182.1502672849062	0.2341366603171506	0.04326292228651554	-1.326684523481465	-22.59474858922534	-1.562254213110603	-3.255879905913453	5.899560354604904	2.451982624139334	1.987972377786656	0	-24.74602339795281	-3.373704983460533	-11.61982157204529	9.793848132074926	-0.4439473045988533	4.250290820099795	0	-21.37711699760957	1.659277491615732	3.206407148933037	0	0	0	87.9188531153321	-14.99567173616761	-0.5046180294797558	74.6124462482038	44.98494316456217	0	4.981033656144998	87.94729345307297	-15.04341296878655	-0.6762415761892802	74.59345388484741	45.00787084511946	0	4.981033656144998
6.5843067	-15.00752589064457	2.109003452370782	-182.1529585415676	0.2341366603171506	0.04326292228651554	-1.326684523481465	-22.59399753739917	-1.562748871649425	-3.260636697711237	5.899560354604904	2.451982624139334	1.987972377786656	0	-24.7397835458428	-3.367165161043871	-11.61683878945272	9.793848132074926	-0.4439473045988533	4.250290820099795	0	-21.37711699760957	1.659277491615732	3.206407148933037	0	0	0	87.93012162273338	-14.99573068411613	-0.4959565466989974	74.62096807310374	44.98549172221529	0	4.981888541859899	87.95840793837466	-15.04282171269617	-0.6646342192029661	74.60239313745747	45.00758410496381	0	4.981888541859899
6.7512593	-14.99785005040274	2.110662537231698	-182.1517367128591	0.2341366603171506	0.04326292228651554	-1.326684523481465	-22.58912016819447	-1.561858627625152	-3.255261963438185	5.899560354604904	2.451982624139334	1.987972377786656	0	-24.7288325549112	-3.364194245095572	-11.62325412344959	9.793848132074926	-0.4439473045988533	4.250290820099795	0	-21.37711699760957	1.659277491615732	3.206407148933037	0	0	0	87.94508693634164	-14.99580842903355	-0.4845089387670862	74.63234433390407	44.98633074433316	0	4.983714105426312	87.97316870160063	-15.0420419203994	-0.6492931096227798	74.61432665204704	45.00714553425966	0	4.983714105426312
6.918116	-14.99974527660435	2.109302167919552	-182.152415864596	0.2341366603171506	0.04326292228651554	-1.326684523481465	-22.58742951957155	-1.560490992265179	-3.250961971263938	5.899560354604904	2.451982624139334	1.987972377786656	0	-24.72338786193204	-3.356089578038917	-11.62195171783665	9.793848132074926	-0.4439473045988533	4.250290820099795	0	-21.37711699760957	1.659277491615732	3.206407148933037	0	0	0	87.96896193958653	-14.99593141197589	-0.466276872075738	74.65079798347843	44.98784652102547	0	4.987120202556695	87.99671737756796	-15.04080838442807	-0.6248599536832651	74.63368424780462	45.00635321281197	0	4.987120202556695
7.0845506	-15.00699596163654	2.109099265634077	-182.1501105697662	0.2341366603171506	0.04326292228651554	-1.326684523481465	-22.59106018501668	-1.55793502935634	-3.253463552353865	5.899560354604904	2.451982624139334	1.987972377786656	0	-24.72952098733327	-3.353410888133601	-11.61653409976587	9.793848132074926	-0.4439473045988533	4.250290820099795	0	-21.37711699760957	1.659277491615732	3.206407148933037	0	0	0	87.98958610291801	-14.99603843010589	-0.4502219264054388	74.66736770512279	44.9892856667517	0	4.990305429620451	88.01705964861232	-15.03973497772433	-0.6033443403527805	74.6510656378439	45.00560094762755	0	4.990305429620451
7.2346088	-14.83277801976312	3.25895522199855	-186.5602380847994	0.2341366603171506	0.04326292228651554	-1.326684523481465	-22.36260537725835	-2.168184582866385	1.26165179016534	5.899560354604904	2.451982624139334	1.987972377786656	0	-24.87802420887724	-2.561163583711735	-16.10724444646445	9.793848132074926	-0.4439473045988533	4.250290820099795	0	-21.37711699760957	1.659277491615732	3.206407148933037	0	0	0	87.98960266868544	-14.99603852449604	-0.4502073950491371	74.66738308515554	44.98928702077816	0	4.990308153564224	88.01707598794468	-15.03973403097806	-0.603324866443941	74.6510817712735	45.00560023985565	0	4.990308153564224
7.4013328	-12.64959818576757	8.686482863947262	-208.7995415165866	0.2341366603171506	0.04326292228651554	-1.326684523481465	-20.53787302678242	-4.784790018358665	23.91906687542192	5.899560354604904	2.451982624139334	1.987972377786656	0	-24.68284377435701	1.383471876085594	-38.52723191971031	9.793848132074926	-0.4439473045988533	4.250290820099795	0	-21.37711699760957	1.659277491615732	3.206407148933037	0	0	0	87.98962815394066	-14.99603867052881	-0.450184875224942	74.667406968218	44.98928913505659	0	4.990312424570093	88.01710112484469	-15.03973256624889	-0.6032946869417432	74.65110682425754	45.00559913468742	0	4.990312424570093
